HIERARCHY
ROOT Hips
{
 OFFSET 0.000000 0.000000 0.000000
 CHANNELS 6 Xposition Yposition Zposition Yrotation Xrotation Zrotation
 JOINT Chest
 {
  OFFSET 0.000000 9.585900 0.002600
  CHANNELS 3 Yrotation Xrotation Zrotation
  JOINT Chest2
  {
   OFFSET 0.000000 9.601200 -0.005300
   CHANNELS 3 Yrotation Xrotation Zrotation
   JOINT Chest3
   {
    OFFSET 0.000000 9.561800 0.000000
    CHANNELS 3 Yrotation Xrotation Zrotation
    JOINT Chest4
    {
     OFFSET 0.000000 9.552100 0.000000
     CHANNELS 3 Yrotation Xrotation Zrotation
     JOINT Neck
     {
      OFFSET 0.000000 14.453000 0.000000
      CHANNELS 3 Yrotation Xrotation Zrotation
      JOINT Head
      {
       OFFSET 0.000000 8.936500 -0.011300
       CHANNELS 3 Yrotation Xrotation Zrotation
       End Site
       {
        OFFSET 0.000000 17.073600 -0.006000
       }
      }
     }
     JOINT RightCollar
     {
      OFFSET -2.921100 9.558500 0.000000
      CHANNELS 3 Yrotation Xrotation Zrotation
      JOINT RightShoulder
      {
       OFFSET -13.519700 0.000000 0.000000
       CHANNELS 3 Yrotation Xrotation Zrotation
       JOINT RightElbow
       {
        OFFSET 0.000000 -29.696600 0.000000
        CHANNELS 3 Yrotation Xrotation Zrotation
        JOINT RightWrist
        {
         OFFSET 0.000000 -24.004700 0.000000
         CHANNELS 3 Yrotation Xrotation Zrotation
         End Site
         {
          OFFSET 0.000000 -17.728500 0.000000
         }
        }
       }
      }
     }
     JOINT LeftCollar
     {
      OFFSET 2.921100 9.558500 0.000000
      CHANNELS 3 Yrotation Xrotation Zrotation
      JOINT LeftShoulder
      {
       OFFSET 13.519700 0.000000 0.000000
       CHANNELS 3 Yrotation Xrotation Zrotation
       JOINT LeftElbow
       {
        OFFSET 0.000000 -29.696600 0.000000
        CHANNELS 3 Yrotation Xrotation Zrotation
        JOINT LeftWrist
        {
         OFFSET 0.000000 -24.004700 0.000000
         CHANNELS 3 Yrotation Xrotation Zrotation
         End Site
         {
          OFFSET 0.000000 -17.728500 0.000000
         }
        }
       }
      }
     }
    }
   }
  }
 }
 JOINT RightHip
 {
  OFFSET -7.771700 -0.012900 -0.001300
  CHANNELS 3 Yrotation Xrotation Zrotation
  JOINT RightKnee
  {
   OFFSET 0.000000 -40.869800 0.001200
   CHANNELS 3 Yrotation Xrotation Zrotation
   JOINT RightAnkle
   {
    OFFSET 0.000000 -39.717900 0.002100
    CHANNELS 3 Yrotation Xrotation Zrotation
    JOINT RightToe
    {
     OFFSET 0.000000 -4.965400 11.033500
     CHANNELS 3 Yrotation Xrotation Zrotation
     End Site
     {
      OFFSET 0.000000 -1.423100 5.872300
     }
    }
   }
  }
 }
 JOINT LeftHip
 {
  OFFSET 7.771700 -0.012900 -0.001300
  CHANNELS 3 Yrotation Xrotation Zrotation
  JOINT LeftKnee
  {
   OFFSET 0.000000 -40.869800 0.001200
   CHANNELS 3 Yrotation Xrotation Zrotation
   JOINT LeftAnkle
   {
    OFFSET 0.000000 -39.717900 0.002100
    CHANNELS 3 Yrotation Xrotation Zrotation
    JOINT LeftToe
    {
     OFFSET 0.000000 -4.965400 11.033500
     CHANNELS 3 Yrotation Xrotation Zrotation
     End Site
     {
      OFFSET 0.000000 -1.423100 5.872300
     }
    }
   }
  }
 }
}
MOTION
Frames: 8
Frame Time: 0.008333
0.000000 85.388000 0.000000 0.000000 -5.767877 0.000000 0.000000 11.653817 0.000000 0.000000 -5.885947 0.000000 0.000000 -0.000000 0.000000 0.000000 -0.000000 0.000000 0.000000 12.528835 0.000000 0.000000 0.711642 0.000000 0.000000 -0.000000 0.000000 0.000000 0.000000 -90.000000 0.000000 -2.309062 0.000000 0.000000 2.309062 0.000000 0.000000 -0.000000 0.000000 0.000000 -0.000000 90.000000 0.000000 -2.309062 0.000000 0.000000 2.309062 0.000000 0.000000 8.520406 0.000000 0.000000 1.905762 0.000000 -0.000000 -4.658285 0.000000 0.000000 -0.000000 0.000000 0.000000 8.520406 0.000000 0.000000 1.905762 0.000000 -0.000000 -4.658285 0.000000 0.000000 -0.000000 0.000000
-25.142279 51.933090 28.072298 178.909160 -29.955531 1.768702 0.228431 21.378994 1.122339 -0.022873 2.838203 0.172096 -0.040699 4.770832 0.348002 0.001137 18.325925 1.267956 0.238424 13.850280 -5.610656 1.543975 -11.066546 -6.075568 9.083241 11.439610 13.276441 26.730879 -5.405485 -34.234669 107.494789 -55.571860 -144.369721 2.688875 -0.992991 -6.960377 -9.922002 11.703108 -17.348628 -30.930952 0.336369 34.259916 177.185622 -63.569925 -142.701306 17.616870 10.973439 0.126108 -6.710088 -53.024748 -1.554802 -62.214178 81.686232 -70.660357 -3.948806 -7.797485 8.032975 0.104208 -0.588845 0.043225 3.692592 -50.245305 -6.086429 47.512458 81.885041 54.092432 -1.205995 -11.440129 -3.930628 0.142100 0.407762 0.051823
-25.138739 51.929466 28.054947 178.903623 -29.820246 1.790184 0.225361 21.324808 1.125642 -0.027377 2.869829 0.196637 -0.039544 4.676678 0.320148 -0.003620 18.262926 1.265838 0.248554 13.882680 -5.620986 1.598893 -11.062169 -6.070341 9.060441 11.463275 13.265561 26.816527 -5.435566 -34.271923 107.577339 -55.570186 -144.432112 2.636283 -0.950903 -6.779971 -9.919044 11.724318 -17.339345 -30.890946 0.314548 34.216118 177.141676 -63.590322 -142.702898 17.631678 10.956959 0.118838 -6.675128 -53.167066 -1.580653 -62.461667 81.689863 -70.890131 -3.937638 -7.809298 8.033048 0.105746 -0.592873 0.042525 3.670177 -50.380435 -6.107511 47.698136 81.905008 54.274627 -1.180831 -11.476741 -3.961360 0.141816 0.409772 0.050918
-25.138126 51.923866 28.036410 178.916178 -29.649898 1.825657 0.198341 21.235906 1.102387 -0.028052 2.844827 0.195581 -0.038760 4.633730 0.313353 -0.009592 18.202621 1.270106 0.262377 13.917529 -5.632023 1.615871 -11.051779 -6.076000 9.017268 11.470364 13.256469 26.907621 -5.441400 -34.297752 107.718517 -55.555764 -144.547908 2.587978 -0.906602 -6.602134 -9.916990 11.744644 -17.331986 -30.884649 0.311841 34.172555 177.125708 -63.626565 -142.675754 17.639609 10.950179 0.099716 -6.633194 -53.347966 -1.635143 -62.727454 81.701623 -71.141282 -3.938491 -7.833866 8.031986 0.105704 -0.584466 0.045075 3.658477 -50.550062 -6.160429 47.879770 81.909093 54.434810 -1.161517 -11.499899 -3.973080 0.127203 0.409714 0.043105
-25.137257 51.919475 28.011553 178.959571 -29.490274 1.848808 0.142073 21.156880 1.073999 -0.028870 2.819342 0.194626 -0.034296 4.582216 0.297162 -0.017393 18.148462 1.285394 0.298281 13.941006 -5.636249 1.676616 -11.027689 -6.095945 8.984910 11.493994 13.244006 26.993706 -5.472434 -34.328311 107.917643 -55.547133 -144.715716 2.546743 -0.854300 -6.436594 -9.915877 11.772630 -17.335789 -30.870744 0.306705 34.147455 177.086292 -63.640782 -142.637429 17.636291 10.958621 0.092397 -6.612595 -53.521043 -1.698130 -63.129265 81.719752 -71.527176 -3.938748 -7.858574 8.035371 0.109556 -0.567664 0.047169 3.619045 -50.710851 -6.213353 48.077341 81.913895 54.608572 -1.144708 -11.520703 -3.983679 0.121604 0.408395 0.033216
-25.129618 51.912709 27.986987 178.954242 -29.303859 1.857633 0.142263 21.050500 1.084358 -0.029778 2.793458 0.193709 -0.034482 4.545509 0.297831 -0.027195 18.077553 1.283035 0.378776 13.940474 -5.628364 1.710074 -10.971092 -6.124664 8.974532 11.540723 13.229806 27.073983 -5.531870 -34.368091 108.185330 -55.551612 -144.952849 2.512935 -0.780951 -6.293972 -9.913660 11.816399 -17.359257 -30.861844 0.291483 34.161611 177.005446 -63.662434 -142.559757 17.626622 10.980085 0.123482 -6.616818 -53.709236 -1.677692 -63.316604 81.726069 -71.708761 -3.933449 -7.856981 8.042426 0.109290 -0.582016 0.041725 3.613898 -50.899012 -6.228522 48.213478 81.954248 54.755068 -1.117625 -11.562619 -4.016277 0.132918 0.411912 0.037218
-25.118808 51.909269 27.953241 178.932053 -29.164758 1.857830 0.159369 20.988387 1.111671 -0.030997 2.767464 0.192788 -0.045820 4.518289 0.314252 -0.033674 17.995961 1.263144 0.426391 13.966807 -5.638767 1.718504 -10.937670 -6.137688 8.963767 11.592550 13.213997 27.170881 -5.593543 -34.415689 108.539641 -55.577970 -145.276051 2.482209 -0.676142 -6.186058 -9.909108 11.843388 -17.358044 -30.859329 0.285981 34.134960 176.955352 -63.685502 -142.503129 17.628380 10.988494 0.136251 -6.610165 -53.853503 -1.648810 -63.674707 81.739768 -72.052259 -3.918679 -7.858475 8.049322 0.104119 -0.612800 0.036305 3.529239 -51.043917 -6.181613 48.608992 81.996723 55.151228 -1.087785 -11.625388 -4.085363 0.134008 0.405078 0.052202
-25.115902 51.907672 27.913817 178.964775 -29.056715 1.879846 0.105360 20.952664 1.086707 -0.024121 2.718681 0.181579 -0.056120 4.500486 0.323833 -0.045589 17.926618 1.263300 0.477320 13.993930 -5.651645 1.730025 -10.901074 -6.153005 8.927878 11.647584 13.190696 27.305402 -5.651576 -34.474117 109.014774 -55.638498 -145.707596 2.450493 -0.536442 -6.128539 -9.917772 11.835798 -17.326961 -30.831897 0.283384 34.060763 176.908350 -63.706637 -142.450915 17.628098 11.008129 0.149721 -6.589333 -53.974227 -1.700202 -64.248353 81.765831 -72.620381 -3.930234 -7.857657 8.056526 0.127774 -0.635202 0.045717 3.471005 -51.155121 -6.213234 48.946427 82.032413 55.484984 -1.108802 -11.709503 -4.132781 0.195834 0.431012 0.063110
